HIERARCHY
ROOT Hips
{
	OFFSET 0.00000 0.00000 0.00000
	CHANNELS 6 Xposition Yposition Zposition Zrotation Yrotation Xrotation 
	JOINT LHipJoint
	{
		OFFSET 0 0 0
		CHANNELS 3 Zrotation Yrotation Xrotation
		JOINT LeftHip
		{
			OFFSET 1.53139 -1.83434 0.76626
			CHANNELS 3 Zrotation Yrotation Xrotation
			JOINT LeftKnee
			{
				OFFSET 2.56112 -7.03663 0.00000
				CHANNELS 3 Zrotation Yrotation Xrotation
				JOINT LeftAnkle
				{
					OFFSET 2.59983 -7.14299 0.00000
					CHANNELS 3 Zrotation Yrotation Xrotation
					JOINT LeftToe
					{
						OFFSET 0.13742 -0.37757 2.00054
						CHANNELS 3 Zrotation Yrotation Xrotation
						End Site
						{
							OFFSET 0.00000 -0.00000 1.02897
						}
					}
				}
			}
		}
	}
	JOINT RHipJoint
	{
		OFFSET 0 0 0
		CHANNELS 3 Zrotation Yrotation Xrotation
		JOINT RightHip
		{
			OFFSET -1.40122 -1.83435 0.76627
			CHANNELS 3 Zrotation Yrotation Xrotation
			JOINT RightKnee
			{
				OFFSET -2.54052 -6.98003 0.00000
				CHANNELS 3 Zrotation Yrotation Xrotation
				JOINT RightAnkle
				{
					OFFSET -2.63179 -7.23079 0.00000
					CHANNELS 3 Zrotation Yrotation Xrotation
					JOINT RightToe
					{
						OFFSET -0.24131 -0.66299 2.03908
						CHANNELS 3 Zrotation Yrotation Xrotation
						End Site
						{
							OFFSET -0.00000 -0.00000 1.07391
						}
					}
				}
			}
		}
	}
	JOINT lowerback
	{
		OFFSET 0 0 0
		CHANNELS 3 Zrotation Yrotation Xrotation
		JOINT Chest
		{
			OFFSET 0.01174 2.10302 -0.29778
			CHANNELS 3 Zrotation Yrotation Xrotation
			JOINT Chest2
			{
				OFFSET 0.00772 2.13227 -0.01247
				CHANNELS 3 Zrotation Yrotation Xrotation
				JOINT lowerneck
				{
					OFFSET 0 0 0
					CHANNELS 3 Zrotation Yrotation Xrotation
					JOINT Neck
					{
						OFFSET -0.09219 1.60848 0.31481
						CHANNELS 3 Zrotation Yrotation Xrotation
						JOINT Head
						{
							OFFSET 0.13974 1.65456 -0.31134
							CHANNELS 3 Zrotation Yrotation Xrotation
							End Site
							{
								OFFSET 0.04742 1.69515 -0.14578
							}
						}
					}
				}
				JOINT LeftCollar
				{
					OFFSET 0 0 0
					CHANNELS 3 Zrotation Yrotation Xrotation
					JOINT LeftShoulder
					{
						OFFSET 3.24909 1.02882 -0.23993
CHANNELS 3 Zrotation Xrotation Yrotation
						JOINT LeftElbow
						{
OFFSET 0 -5.329550 -0.000000
CHANNELS 3 Zrotation Xrotation Yrotation
							JOINT LeftWrist
							{
OFFSET 0 -3.692320 -0.000000
CHANNELS 3 Zrotation Xrotation Yrotation
								JOINT lhand
								{
									OFFSET 0 0 0
CHANNELS 3 Zrotation Xrotation Yrotation
									JOINT LFingers
									{
OFFSET 0 -0.536600 -0.000000
CHANNELS 3 Zrotation Xrotation Yrotation
										End Site
										{
OFFSET 0 -0.432620 -0.000000
										}
									}
								}
								JOINT LThumb
								{
OFFSET 0 0.000000 0.000000
CHANNELS 3 Zrotation Xrotation Yrotation
									End Site
									{
OFFSET 0 -0.439220 0.439220
									}
								}
							}
						}
					}
				}
				JOINT RightCollar
				{
					OFFSET 0 0 0
					CHANNELS 3 Zrotation Yrotation Xrotation
					JOINT RightShoulder
					{
						OFFSET -3.21387 0.93002 -0.34594
CHANNELS 3 Zrotation Xrotation Yrotation
						JOINT RightElbow
						{
OFFSET 0 -5.234310 0.000000
CHANNELS 3 Zrotation Xrotation Yrotation
							JOINT RightWrist
							{
OFFSET 0 -3.553010 -0.000000
CHANNELS 3 Zrotation Xrotation Yrotation
								JOINT rhand
								{
									OFFSET 0 0 0
CHANNELS 3 Zrotation Xrotation Yrotation
									JOINT RFingers
									{
OFFSET 0 -0.772520 -0.000000
CHANNELS 3 Zrotation Xrotation Yrotation
										End Site
										{
OFFSET 0 -0.622830 -0.000000
										}
									}
								}
								JOINT RThumb
								{
OFFSET 0 0.000000 0.000000
CHANNELS 3 Zrotation Xrotation Yrotation
									End Site
									{
OFFSET 0 -0.632340 0.632340
									}
								}
							}
						}
					}
				}
			}
		}
	}
}
MOTION
Frames: 9
Frame Time: 0.008333333333333333
-11.256800 17.844200 -9.763000 -2.422100 35.271700 -0.181600 0.000000 0.000000 0.000000 -14.473700 -8.378200 -15.185300 5.403100 13.823900 42.536400 0.161000 -1.787100 -7.166200 0.499000 -4.528900 -12.569800 0.000000 0.000000 0.000000 27.936800 -0.561500 -4.365900 -1.495900 -7.725900 21.884500 -0.774500 -1.048600 -17.037400 -0.306600 -3.559800 9.841300 1.353800 0.648000 11.476200 1.651600 1.148000 0.967000 0.781900 0.560000 -5.433400 -12.941300 -6.606800 -17.211000 8.029300 -7.982800 32.179300 4.147300 -3.834600 14.980100 -0.000000 0.000000 0.000000 1.156800 0.901400 -21.634900 15.387700 -24.683400 3.386200 20.473900 13.773300 -23.202000 0.000000 0.000000 0.000000 -7.125000 0.000000 0.000000 -9.160700 54.333000 2.114400 -0.000000 0.000000 0.000000 -0.385300 -2.021300 15.187600 -14.616700 -23.609400 -3.070800 -16.026400 9.684800 -7.467500 0.000000 0.000000 0.000000 7.125000 0.000000 -0.000000 7.857700 22.237800 4.339400
-11.269268 17.844774 -9.743578 -2.567585 35.505303 -0.381136 0.000000 0.000000 0.000000 -14.044006 -8.811864 -16.160917 5.793144 14.223470 44.143257 0.098009 -2.206740 -5.536891 0.168605 -2.605886 -7.185450 0.000000 0.000000 0.000000 28.177923 -0.767542 -4.065527 -1.450141 -7.611921 21.541449 -0.756042 -1.205344 -16.904498 -0.348148 -3.789838 10.486316 1.621580 0.661174 11.781851 1.566671 1.202356 1.050212 0.530095 0.579647 -5.509213 -12.741906 -6.611746 -17.188985 7.954080 -8.034226 32.310230 4.076554 -3.841454 15.027066 0.000000 0.000000 0.000000 1.395056 0.893090 -21.980662 15.497397 -24.834411 3.432160 20.555352 13.485414 -23.257867 0.000000 0.000000 0.000000 -7.125000 0.000000 0.000000 -9.099630 54.406079 2.116405 0.000000 0.000000 0.000000 -0.295480 -1.908079 15.440031 -14.692440 -23.715906 -3.101228 -16.202607 9.296567 -7.483818 0.000000 0.000000 0.000000 7.125000 0.000000 0.000000 7.729005 22.213511 4.271390
-11.276018 17.845325 -9.725450 -2.659631 35.640149 -0.511710 0.000000 0.000000 0.000000 -13.735305 -9.000036 -17.218950 6.175999 14.595775 45.682204 0.046392 -2.520065 -3.937509 0.064943 -1.627898 -4.478782 0.000000 0.000000 0.000000 28.311648 -0.989774 -3.866654 -1.413181 -7.518518 21.261053 -0.744102 -1.102767 -16.731223 -0.408049 -4.099118 11.355822 1.920292 0.681415 12.097266 1.476013 1.272204 1.096189 0.251480 0.605405 -5.628010 -12.995370 -6.683100 -17.158198 8.157461 -8.134601 32.466162 4.195619 -3.889252 15.135422 0.000000 0.000000 0.000000 1.522988 0.899943 -22.147603 15.575890 -24.942224 3.465178 20.218170 13.390464 -22.997661 0.000000 0.000000 0.000000 -7.125000 0.000000 0.000000 -9.340561 54.075380 2.096731 0.000000 0.000000 0.000000 -0.248444 -1.780818 15.689296 -14.796277 -23.861443 -3.143090 -16.283830 9.083169 -7.500524 0.000000 0.000000 0.000000 7.125000 0.000000 0.000000 7.669428 22.192731 4.241491
-11.279634 17.842808 -9.709516 -2.841812 35.727337 -0.680832 0.000000 0.000000 0.000000 -13.362642 -9.240973 -18.232806 6.534042 14.926225 47.088343 0.014547 -2.775846 -2.717100 0.030170 -1.120729 -3.081036 0.000000 0.000000 0.000000 28.533631 -1.060141 -3.673798 -1.385255 -7.446967 21.046614 -0.715169 -1.079892 -16.402017 -0.472984 -4.410628 12.234833 2.275914 0.716275 12.367529 1.456638 1.373742 1.168149 0.010357 0.646661 -5.693131 -13.389048 -6.751518 -17.068494 8.475613 -8.229290 32.560966 4.388974 -3.938019 15.217082 0.000000 0.000000 0.000000 1.586867 0.929546 -22.395916 15.705425 -25.119468 3.519978 19.945252 13.168442 -22.798023 0.000000 0.000000 0.000000 -7.125000 0.000000 0.000000 -9.539404 53.819460 2.082844 0.000000 0.000000 0.000000 -0.322741 -1.737930 15.901499 -14.816050 -23.889142 -3.151092 -16.404580 8.884600 -7.755130 0.000000 0.000000 0.000000 7.125000 0.000000 0.000000 7.574795 21.924821 4.234750
-11.279113 17.838816 -9.690464 -2.930093 35.827819 -0.802763 0.000000 0.000000 0.000000 -13.118563 -9.469922 -19.065825 6.837874 15.193238 48.257346 0.001726 -3.066355 -2.243078 0.048040 -1.400772 -3.852615 0.000000 0.000000 0.000000 28.660667 -1.179526 -3.456185 -1.358743 -7.378342 20.841223 -0.717337 -1.178993 -16.468255 -0.435952 -4.235367 11.739980 2.554264 0.797796 12.662607 1.420634 1.528717 1.196911 -0.215324 0.714624 -5.816591 -13.386651 -6.785604 -16.821319 8.491598 -8.312998 32.557844 4.383466 -3.974454 15.172521 0.000000 0.000000 0.000000 1.745081 1.222147 -23.107795 15.970177 -25.480069 3.633189 20.360269 12.843778 -23.244035 0.000000 0.000000 0.000000 -7.125000 0.000000 0.000000 -9.294046 54.354099 2.150296 0.000000 0.000000 0.000000 -0.405894 -1.551933 16.039254 -14.857321 -23.946979 -3.167857 -16.784917 8.793983 -7.847504 0.000000 0.000000 0.000000 7.125000 0.000000 0.000000 7.296397 21.812000 4.095610
-11.273599 17.838640 -9.665130 -2.917845 35.951570 -0.856538 0.000000 0.000000 0.000000 -13.038091 -9.579605 -19.846466 7.072255 15.392272 49.146949 -0.006532 -3.565667 -2.178429 0.080522 -1.828414 -5.031690 0.000000 0.000000 0.000000 28.663385 -1.534030 -3.245629 -1.323059 -7.284649 20.561417 -0.734468 -1.183811 -16.659704 -0.375156 -3.933236 10.888939 2.791479 0.860585 12.859546 1.313596 1.644486 1.292338 -0.484343 0.765374 -5.813013 -13.250363 -6.779100 -16.788089 8.497174 -8.350601 32.576932 4.356877 -3.971739 15.170851 0.000000 0.000000 0.000000 1.865980 1.252031 -23.243751 16.106817 -25.665225 3.692110 20.358150 12.738029 -23.175901 0.000000 0.000000 0.000000 -7.125000 0.000000 0.000000 -9.268863 54.283960 2.128524 0.000000 0.000000 0.000000 -0.432105 -1.484205 16.359610 -14.925706 -24.042497 -3.195626 -17.129088 8.431116 -7.631016 0.000000 0.000000 0.000000 7.125000 0.000000 0.000000 7.051273 22.020158 3.922310
-11.268918 17.841871 -9.633307 -3.089471 36.022175 -0.975552 0.000000 0.000000 0.000000 -12.771345 -9.628130 -20.657544 7.212335 15.508122 49.672752 -0.017074 -4.184380 -2.190436 0.085129 -1.880886 -5.176522 0.000000 0.000000 0.000000 28.878799 -1.631793 -2.949633 -1.278825 -7.166409 20.209384 -0.738305 -1.390671 -16.792258 -0.316003 -3.613159 9.990911 3.140807 0.960196 12.990654 1.210029 1.822151 1.427003 -0.822060 0.846151 -5.724224 -13.194281 -6.880993 -17.021699 8.660854 -8.556289 32.761631 4.382931 -4.024515 15.350156 0.000000 0.000000 0.000000 1.998761 1.028818 -23.275722 16.131256 -25.698242 3.702678 20.423907 12.843233 -23.195893 0.000000 0.000000 0.000000 -7.125000 0.000000 0.000000 -9.209536 54.317148 2.122270 0.000000 0.000000 0.000000 -0.348267 -1.558710 16.341380 -14.959154 -24.089227 -3.209221 -17.019160 8.125015 -7.648312 0.000000 0.000000 0.000000 7.125000 0.000000 0.000000 7.130865 22.007322 3.969346
-11.263403 17.843821 -9.598340 -3.140116 36.091749 -1.029174 0.000000 0.000000 0.000000 -12.625752 -9.596351 -21.338411 7.253524 15.541762 49.826871 -0.024621 -4.764165 -2.383009 0.071461 -1.724508 -4.744822 0.000000 0.000000 0.000000 28.982418 -1.695483 -2.618236 -1.231401 -7.037369 19.826222 -0.735167 -1.450254 -16.784193 -0.333867 -3.710922 10.265096 3.260355 1.035985 13.012213 1.164131 1.934967 1.553758 -0.956067 0.902128 -5.592541 -13.155360 -6.933606 -17.013217 8.684939 -8.659717 32.891246 4.372611 -4.059309 15.425244 0.000000 0.000000 0.000000 2.030024 0.996719 -23.286610 16.246785 -25.854081 3.752988 20.311469 12.620494 -22.996554 0.000000 0.000000 0.000000 -7.125000 0.000000 0.000000 -9.244951 54.091697 2.079420 0.000000 0.000000 0.000000 -0.249141 -1.496108 15.981482 -14.999511 -24.145389 -3.225733 -16.890557 8.536745 -7.874346 0.000000 0.000000 0.000000 7.125000 0.000000 0.000000 7.219178 21.779228 4.056904
-11.255548 17.847377 -9.564699 -2.919139 36.159342 -0.853503 0.000000 0.000000 0.000000 -12.758189 -9.564667 -21.990791 7.205307 15.502431 49.646718 -0.025103 -5.238292 -2.799797 0.106384 -2.102958 -5.790192 0.000000 0.000000 0.000000 28.807770 -1.841802 -2.428696 -1.193315 -6.931700 19.513078 -0.730823 -1.297167 -16.669378 -0.390084 -4.010456 11.106178 3.207324 1.119965 13.102717 1.061699 2.036128 1.540924 -1.054040 0.950496 -5.650409 -13.032712 -6.918712 -16.743438 8.558592 -8.663351 32.965206 4.303698 -4.066342 15.382744 0.000000 0.000000 0.000000 2.014042 1.216331 -23.214202 16.362678 -26.009865 3.803628 20.263632 12.596685 -23.170246 0.000000 0.000000 0.000000 -7.125000 0.000000 0.000000 -9.363389 54.259990 2.145078 0.000000 0.000000 0.000000 -0.198211 -1.231471 15.797963 -15.079294 -24.256396 -3.258393 -16.839021 8.662876 -7.789602 0.000000 0.000000 0.000000 7.125000 0.000000 0.000000 7.258545 21.869348 4.064329
